<?xml version="1.0" encoding="UTF-8"?>
<svg id="Layer_1" data-name="Layer 1" xmlns="http://www.w3.org/2000/svg" viewBox="0 0 1024 1024">
  <defs>
    <style>
      .cls-1 {
        fill: #eb2573;
      }
    </style>
  </defs>
  <path class="cls-1" d="M761.45,896h-498.91c-74.31,0-134.55-60.24-134.55-134.55v-498.91c0-74.31,60.24-134.55,134.55-134.55h498.91c74.31,0,134.55,60.24,134.55,134.55v498.91c0,74.31-60.24,134.55-134.55,134.55ZM284.62,812.26h454.75c40.25,0,72.88-32.63,72.88-72.88v-454.75c0-40.25-32.63-72.88-72.88-72.88h-454.75c-40.25,0-72.88,32.63-72.88,72.88v454.75c0,40.25,32.63,72.88,72.88,72.88Z"/>
  <polygon class="cls-1" points="460.08 693.54 289.65 523.11 348.87 463.9 460.08 575.12 675.13 360.06 734.35 419.28 460.08 693.54"/>
</svg>